# xmcd
#
# Track frame offsets:
#	150
#	17105
#	47970
#	78095
#	93824
#	111035
#	122285
#	146319
#	149561
#	163627
#	185948
#	199192
#	206259
#	219474
#	227665
#	241140
#	251098
#	270218
#	285773
#
# Disc length: 4074 seconds
#
# Revision: 0
# Processed by: cddbd v1.5.1PL0 Copyright (c) Steve Scherf et al.
# Submitted via: audiograbber 1.83.01
#
DISCID=fe0fe813
DTITLE=Son House - Legends of Country Blues - CD 2/5
DYEAR=1900
DGENRE=Blues
TTITLE0=Levee Camp Blues
TTITLE1=Government Fleet Blues
TTITLE2=Walking Blues (4780-b-2)
TTITLE3=Shetland Pony Blues
TTITLE4=Fo' Clock Blues
TTITLE5=Camp Hollers
TTITLE6=Delta Blues
TTITLE7=Special Rider Blues (test)
TTITLE8=Special Rider Blues
TTITLE9=Low Down, Dirty Dog Blues
TTITLE10=Depot Blues
TTITLE11=The Key of Minor
TTITLE12=American Defense
TTITLE13=Am I Right or Wrong
TTITLE14=Walking Blues (6607-B-3a)
TTITLE15=County Farm Blues
TTITLE16=The Pony Blues
TTITLE17=The Jinx Blues (part 1)
TTITLE18=The Jinx Blues (part 2)
EXTD=JSP7715
EXTT0=
EXTT1=
EXTT2=
EXTT3=
EXTT4=
EXTT5=
EXTT6=
EXTT7=
EXTT8=
EXTT9=
EXTT10=
EXTT11=
EXTT12=
EXTT13=
EXTT14=
EXTT15=
EXTT16=
EXTT17=
EXTT18=
PLAYORDER=
